<?xml version="1.0" encoding="UTF-8" standalone="no"?>
<svg
   viewBox="0 0 50 50"
   width="500px"
   height="500px"
   version="1.1"
   id="svg1"
   sodipodi:docname="angular.svg"
   inkscape:version="1.4.2 (ebf0e940, 2025-05-08)"
   xmlns:inkscape="http://www.inkscape.org/namespaces/inkscape"
   xmlns:sodipodi="http://sodipodi.sourceforge.net/DTD/sodipodi-0.dtd"
   xmlns="http://www.w3.org/2000/svg"
   xmlns:svg="http://www.w3.org/2000/svg">
  <defs
     id="defs1" />
  <sodipodi:namedview
     id="namedview1"
     pagecolor="#ffffff"
     bordercolor="#000000"
     borderopacity="0.25"
     inkscape:showpageshadow="2"
     inkscape:pageopacity="0.0"
     inkscape:pagecheckerboard="0"
     inkscape:deskcolor="#d1d1d1"
     inkscape:zoom="0.832"
     inkscape:cx="61.298077"
     inkscape:cy="182.09135"
     inkscape:window-width="1512"
     inkscape:window-height="916"
     inkscape:window-x="0"
     inkscape:window-y="38"
     inkscape:window-maximized="1"
     inkscape:current-layer="svg1" />
  <path
     d="M 24.923606,1.2138288e-5 C 24.804171,5.5563948e-4 24.683735,0.0203255 24.569056,0.05945759 L 1.8163122,7.97844 C 1.3336831,8.1458384 1.0314285,8.627873 1.0944746,9.1355031 L 4.6909239,38.61832 c 0.042393,0.348928 0.2485669,0.656345 0.5583626,0.823744 L 24.433181,49.86837 c 0.160876,0.08805 0.339755,0.131629 0.518024,0.131629 0.179355,0 0.360307,-0.04462 0.522271,-0.133752 L 44.75503,39.297697 c 0.306534,-0.168486 0.514933,-0.474867 0.55624,-0.821621 L 48.905596,8.9953819 C 48.968641,8.4855775 48.663329,7.9992969 48.175265,7.8340725 L 25.276032,0.05521154 C 25.161896,0.01716645 25.043039,-5.3136297e-4 24.923606,1.2138288e-5 Z M 25.000035,5.4329012 39.131066,35.868968 H 34.307493 L 31.284268,29.355446 H 18.715802 l -3.023225,6.513522 h -4.823573 z m 0,10.3265228 -4.260965,9.23952 H 29.261 Z"
     id="path1"
     style="fill:#584b53;fill-opacity:1;stroke-width:1" />
</svg>
