<?xml version="1.0" encoding="UTF-8" standalone="no"?>
<svg
   viewBox="0 0 50 50"
   width="500px"
   height="500px"
   version="1.1"
   id="svg1"
   sodipodi:docname="express.svg"
   inkscape:version="1.4.2 (ebf0e940, 2025-05-08)"
   xmlns:inkscape="http://www.inkscape.org/namespaces/inkscape"
   xmlns:sodipodi="http://sodipodi.sourceforge.net/DTD/sodipodi-0.dtd"
   xmlns="http://www.w3.org/2000/svg"
   xmlns:svg="http://www.w3.org/2000/svg">
  <defs
     id="defs1" />
  <sodipodi:namedview
     id="namedview1"
     pagecolor="#ffffff"
     bordercolor="#000000"
     borderopacity="0.25"
     inkscape:showpageshadow="2"
     inkscape:pageopacity="0.0"
     inkscape:pagecheckerboard="0"
     inkscape:deskcolor="#d1d1d1"
     inkscape:zoom="0.58831284"
     inkscape:cx="294.06123"
     inkscape:cy="167.42793"
     inkscape:window-width="1512"
     inkscape:window-height="916"
     inkscape:window-x="0"
     inkscape:window-y="38"
     inkscape:window-maximized="1"
     inkscape:current-layer="svg1" />
  <path
     d="m 49.747,10.499406 h -0.85 c -1.051,0 -2.041,0.49 -2.68,1.324 l -8.7,11.377 -8.7,-11.377 c -0.637,-0.834 -1.628,-1.324 -2.678,-1.324 h -0.85 l 10.971,14.346 -11.206,14.654 h 0.85 c 1.051,0 2.041,-0.49 2.679,-1.324 l 8.935,-11.684 8.935,11.684 c 0.638,0.834 1.628,1.324 2.679,1.324 h 0.85 l -11.206,-14.654 z m -28.44,23.242 c -2.554,3.881 -7.582,5.87 -12.389,4.116 -4.229,-1.543 -6.9,-5.747 -6.9,-10.249 v -1.109 h 12 v 0 h 11 v -4.134 c 0,-6.505 -4.818,-12.2 -11.295,-12.8089996 C 6.291,8.8574064 0.018,14.709406 0.018,21.999406 v 5.573 c 0,5.371 3.215,10.364 8.269,12.183 6.603,2.376 13.548,-1.17 15.896,-7.256 0,0 0,0 0,0 h -0.638 c -0.911,0 -1.738,0.481 -2.238,1.242 z m -19.289,-11.742 c 0,-5.79 4.71,-10.5 10.5,-10.5 5.79,0 10.5,4.71 10.5,10.5 v 2.5 h -21 z"
     id="path1"
     style="fill:#584b53;fill-opacity:1" />
</svg>
