<?xml version="1.0" encoding="UTF-8" standalone="no"?>
<svg
   viewBox="0 0 50 50"
   width="500px"
   height="500px"
   version="1.1"
   id="svg1"
   sodipodi:docname="git.svg"
   inkscape:version="1.4.2 (ebf0e940, 2025-05-08)"
   xmlns:inkscape="http://www.inkscape.org/namespaces/inkscape"
   xmlns:sodipodi="http://sodipodi.sourceforge.net/DTD/sodipodi-0.dtd"
   xmlns="http://www.w3.org/2000/svg"
   xmlns:svg="http://www.w3.org/2000/svg">
  <defs
     id="defs1" />
  <sodipodi:namedview
     id="namedview1"
     pagecolor="#ffffff"
     bordercolor="#000000"
     borderopacity="0.25"
     inkscape:showpageshadow="2"
     inkscape:pageopacity="0.0"
     inkscape:pagecheckerboard="0"
     inkscape:deskcolor="#d1d1d1"
     inkscape:zoom="0.29415642"
     inkscape:cx="108.78566"
     inkscape:cy="351.85362"
     inkscape:window-width="1512"
     inkscape:window-height="916"
     inkscape:window-x="0"
     inkscape:window-y="38"
     inkscape:window-maximized="1"
     inkscape:current-layer="svg1" />
  <path
     d="M 48.688009,21.836787 28.163212,1.3119902 C 27.292798,0.43733043 26.146399,0 25,0 23.853601,0 22.707201,0.43733043 21.836787,1.3119902 l -4.059104,4.0591032 5.022929,5.0229286 c 1.668647,-0.9808091 3.84256,-0.7685124 5.273436,0.662364 1.430876,1.430876 1.638927,3.604789 0.658119,5.269191 l 4.93801,4.93801 c 1.668647,-0.980809 3.84256,-0.768512 5.273436,0.662364 1.69837,1.698369 1.69837,4.449728 0,6.148097 -1.698369,1.69837 -4.449728,1.69837 -6.148097,0 -1.430876,-1.430876 -1.643173,-3.604789 -0.662364,-5.273436 l -4.93801,-4.93801 c -0.352411,0.20805 -0.721807,0.360903 -1.108186,0.45856 v 13.35343 c 1.872452,0.484036 3.26087,2.169667 3.26087,4.194973 0,2.403193 -1.944633,4.347825 -4.347826,4.347825 -2.403193,0 -4.347826,-1.944632 -4.347826,-4.347825 0,-2.025306 1.388417,-3.710937 3.260869,-4.194973 V 18.321162 C 23.18699,18.134341 22.494905,17.773438 21.925951,17.204483 20.495075,15.773607 20.287025,13.599694 21.267832,11.935292 L 16.240658,6.9081183 1.3119905,21.836787 c -1.74932065,1.745074 -1.74932065,4.581352 0,6.326425 L 21.836787,48.688009 c 0.870414,0.87466 2.016814,1.31199 3.163213,1.31199 1.146399,0 2.292798,-0.43733 3.163212,-1.31199 L 48.688009,28.163212 c 1.74932,-1.745073 1.74932,-4.581351 0,-6.326425 z"
     id="path1"
     style="fill:#584b53;fill-opacity:1;stroke-width:1" />
</svg>
