<?xml version="1.0" encoding="UTF-8" standalone="no"?>
<svg
   viewBox="0 0 320 320"
   width="500"
   height="500"
   version="1.1"
   id="svg25"
   sodipodi:docname="go.svg"
   inkscape:version="1.4.2 (ebf0e940, 2025-05-08)"
   xmlns:inkscape="http://www.inkscape.org/namespaces/inkscape"
   xmlns:sodipodi="http://sodipodi.sourceforge.net/DTD/sodipodi-0.dtd"
   xmlns="http://www.w3.org/2000/svg"
   xmlns:svg="http://www.w3.org/2000/svg">
  <defs
     id="defs25" />
  <sodipodi:namedview
     id="namedview25"
     pagecolor="#ffffff"
     bordercolor="#000000"
     borderopacity="0.25"
     inkscape:showpageshadow="2"
     inkscape:pageopacity="0.0"
     inkscape:pagecheckerboard="0"
     inkscape:deskcolor="#d1d1d1"
     inkscape:zoom="0.54588644"
     inkscape:cx="540.40544"
     inkscape:cy="206.08682"
     inkscape:window-width="1512"
     inkscape:window-height="916"
     inkscape:window-x="0"
     inkscape:window-y="38"
     inkscape:window-maximized="1"
     inkscape:current-layer="svg25" />
  <radialGradient
     id="zFTn1c6B9zk4N826UsQ96a"
     cx="-2348"
     cy="1703.5"
     r="30.775"
     gradientTransform="matrix(-1,0,0,1,-2316,-1671)"
     gradientUnits="userSpaceOnUse">
    <stop
       offset="0"
       stop-color="#f4e9c3"
       id="stop1" />
    <stop
       offset=".219"
       stop-color="#f8eecd"
       id="stop2" />
    <stop
       offset=".644"
       stop-color="#fdf4dc"
       id="stop3" />
    <stop
       offset="1"
       stop-color="#fff6e1"
       id="stop4" />
  </radialGradient>
  <linearGradient
     id="zFTn1c6B9zk4N826UsQ96b"
     x1="22.995001"
     x2="13.165"
     y1="60.237999"
     y2="30.110001"
     gradientUnits="userSpaceOnUse">
    <stop
       offset="0"
       stop-color="#41bfec"
       id="stop5" />
    <stop
       offset=".232"
       stop-color="#4cc5ef"
       id="stop6" />
    <stop
       offset=".644"
       stop-color="#6bd4f6"
       id="stop7" />
    <stop
       offset="1"
       stop-color="#8ae4fd"
       id="stop8" />
  </linearGradient>
  <linearGradient
     id="zFTn1c6B9zk4N826UsQ96c"
     x1="19.534"
     x2="9.7049999"
     y1="61.367001"
     y2="31.239"
     gradientUnits="userSpaceOnUse">
    <stop
       offset="0"
       stop-color="#41bfec"
       id="stop9" />
    <stop
       offset=".232"
       stop-color="#4cc5ef"
       id="stop10" />
    <stop
       offset=".644"
       stop-color="#6bd4f6"
       id="stop11" />
    <stop
       offset="1"
       stop-color="#8ae4fd"
       id="stop12" />
  </linearGradient>
  <g
     id="g1"
     transform="matrix(5.3333029,0,0,5.3333029,-10.666803,-10.663969)"
     style="stroke-width:0.187501">
    <path
       fill="url(#zFTn1c6B9zk4N826UsQ96b)"
       d="m 6.528,27.579 c -0.117,0 -0.146,-0.058 -0.088,-0.146 l 0.613,-0.789 c 0.058,-0.088 0.204,-0.146 0.321,-0.146 h 10.429 c 0.117,0 0.146,0.088 0.088,0.175 l -0.497,0.76 c -0.058,0.088 -0.204,0.175 -0.292,0.175 z"
       id="path8"
       style="fill:#584b53;fill-opacity:1;stroke-width:0.187501" />
    <path
       fill="url(#zFTn1c6B9zk4N826UsQ96c)"
       d="M 2.117,30.267 C 2,30.267 1.971,30.209 2.029,30.121 L 2.642,29.332 C 2.7,29.244 2.846,29.186 2.963,29.186 h 13.321 c 0.117,0 0.175,0.088 0.146,0.175 l -0.234,0.701 c -0.029,0.117 -0.146,0.175 -0.263,0.175 z"
       id="path12"
       style="fill:#584b53;fill-opacity:1;stroke-width:0.187501" />
    <g
       id="g16"
       style="fill:#584b53;fill-opacity:1;stroke-width:0.187501">
      <linearGradient
         id="zFTn1c6B9zk4N826UsQ96d"
         x1="21.652"
         x2="11.822"
         y1="60.675999"
         y2="30.549"
         gradientUnits="userSpaceOnUse">
        <stop
           offset="0"
           stop-color="#41bfec"
           id="stop13" />
        <stop
           offset=".232"
           stop-color="#4cc5ef"
           id="stop14" />
        <stop
           offset=".644"
           stop-color="#6bd4f6"
           id="stop15" />
        <stop
           offset="1"
           stop-color="#8ae4fd"
           id="stop16" />
      </linearGradient>
      <path
         fill="url(#zFTn1c6B9zk4N826UsQ96d)"
         d="m 9.186,32.954 c -0.117,0 -0.146,-0.088 -0.088,-0.175 l 0.409,-0.73 c 0.058,-0.088 0.175,-0.175 0.292,-0.175 h 5.843 c 0.117,0 0.175,0.088 0.175,0.204 l -0.058,0.701 c 0,0.117 -0.117,0.204 -0.204,0.204 z"
         id="path16"
         style="fill:#584b53;fill-opacity:1;stroke-width:0.187501" />
    </g>
    <g
       id="g25"
       style="fill:#584b53;fill-opacity:1;stroke-width:0.187501">
      <linearGradient
         id="zFTn1c6B9zk4N826UsQ96e"
         x1="36.993999"
         x2="27.164"
         y1="55.671001"
         y2="25.542999"
         gradientUnits="userSpaceOnUse">
        <stop
           offset="0"
           stop-color="#41bfec"
           id="stop17" />
        <stop
           offset=".232"
           stop-color="#4cc5ef"
           id="stop18" />
        <stop
           offset=".644"
           stop-color="#6bd4f6"
           id="stop19" />
        <stop
           offset="1"
           stop-color="#8ae4fd"
           id="stop20" />
      </linearGradient>
      <path
         fill="url(#zFTn1c6B9zk4N826UsQ96e)"
         d="m 39.51,27.053 c -1.84,0.467 -3.097,0.818 -4.908,1.285 -0.438,0.117 -0.467,0.146 -0.847,-0.292 -0.438,-0.497 -0.76,-0.818 -1.373,-1.11 -1.84,-0.906 -3.622,-0.643 -5.288,0.438 -1.986,1.285 -3.009,3.184 -2.98,5.55 0.029,2.337 1.636,4.265 3.944,4.586 1.986,0.263 3.652,-0.438 4.966,-1.928 0.263,-0.321 0.497,-0.672 0.789,-1.081 -1.052,0 -2.366,0 -5.638,0 -0.613,0 -0.76,-0.38 -0.555,-0.876 0.38,-0.906 1.081,-2.425 1.49,-3.184 0.088,-0.175 0.292,-0.467 0.73,-0.467 1.49,0 6.982,0 10.634,0 -0.058,0.789 -0.058,1.578 -0.175,2.366 -0.321,2.103 -1.11,4.031 -2.395,5.726 -2.103,2.775 -4.849,4.499 -8.326,4.966 -2.863,0.38 -5.521,-0.175 -7.858,-1.928 -2.162,-1.636 -3.389,-3.798 -3.71,-6.485 -0.38,-3.184 0.555,-6.047 2.483,-8.559 2.074,-2.717 4.82,-4.44 8.18,-5.054 2.746,-0.497 5.375,-0.175 7.741,1.431 1.548,1.022 2.658,2.425 3.389,4.119 0.174,0.264 0.057,0.41 -0.293,0.497 z"
         id="path20"
         style="fill:#584b53;fill-opacity:1;stroke-width:0.187501" />
      <g
         id="g24"
         style="fill:#584b53;fill-opacity:1;stroke-width:0.187501">
        <linearGradient
           id="zFTn1c6B9zk4N826UsQ96f"
           x1="56.056"
           x2="46.226002"
           y1="49.451"
           y2="19.323999"
           gradientUnits="userSpaceOnUse">
          <stop
             offset="0"
             stop-color="#41bfec"
             id="stop21" />
          <stop
             offset=".232"
             stop-color="#4cc5ef"
             id="stop22" />
          <stop
             offset=".644"
             stop-color="#6bd4f6"
             id="stop23" />
          <stop
             offset="1"
             stop-color="#8ae4fd"
             id="stop24" />
        </linearGradient>
        <path
           fill="url(#zFTn1c6B9zk4N826UsQ96f)"
           d="m 49.179,43.208 c -2.658,-0.058 -5.083,-0.818 -7.128,-2.571 -1.724,-1.49 -2.804,-3.389 -3.155,-5.638 -0.526,-3.301 0.38,-6.222 2.366,-8.822 2.133,-2.804 4.703,-4.265 8.18,-4.879 2.98,-0.526 5.784,-0.234 8.326,1.49 2.308,1.578 3.739,3.71 4.119,6.515 0.497,3.944 -0.643,7.157 -3.36,9.903 -1.928,1.957 -4.294,3.184 -7.011,3.739 -0.789,0.146 -1.577,0.176 -2.337,0.263 z m 6.953,-11.802 c -0.029,-0.38 -0.029,-0.672 -0.088,-0.964 -0.526,-2.892 -3.184,-4.528 -5.959,-3.885 -2.717,0.613 -4.47,2.337 -5.112,5.083 -0.526,2.279 0.584,4.586 2.688,5.521 1.607,0.701 3.213,0.613 4.762,-0.175 2.307,-1.198 3.563,-3.068 3.709,-5.58 z"
           id="path24"
           style="fill:#584b53;fill-opacity:1;stroke-width:0.187501" />
      </g>
    </g>
  </g>
</svg>
