<?xml version="1.0" encoding="UTF-8" standalone="no"?>
<svg
   viewBox="0 0 50 50"
   width="500px"
   height="500px"
   version="1.1"
   id="svg1"
   sodipodi:docname="java.svg"
   inkscape:version="1.4.2 (ebf0e940, 2025-05-08)"
   xmlns:inkscape="http://www.inkscape.org/namespaces/inkscape"
   xmlns:sodipodi="http://sodipodi.sourceforge.net/DTD/sodipodi-0.dtd"
   xmlns="http://www.w3.org/2000/svg"
   xmlns:svg="http://www.w3.org/2000/svg">
  <defs
     id="defs1" />
  <sodipodi:namedview
     id="namedview1"
     pagecolor="#ffffff"
     bordercolor="#000000"
     borderopacity="0.25"
     inkscape:showpageshadow="2"
     inkscape:pageopacity="0.0"
     inkscape:pagecheckerboard="0"
     inkscape:deskcolor="#d1d1d1"
     inkscape:zoom="0.416"
     inkscape:cx="461.53846"
     inkscape:cy="-78.125"
     inkscape:window-width="1512"
     inkscape:window-height="916"
     inkscape:window-x="0"
     inkscape:window-y="38"
     inkscape:window-maximized="1"
     inkscape:current-layer="svg1" />
  <path
     d="M 28.1875,0.00408811 C 30.9375,6.3673691 18.328125,10.297057 17.15625,15.597838 c -1.074219,4.871094 7.492188,10.53125 7.5,10.53125 -1.300781,-2.015625 -2.257812,-3.675781 -3.5625,-6.8125 C 18.886719,14.011901 34.535156,9.2111191 28.1875,0.00408811 Z m 8.375,8.81249999 c 0,0 -11.0625,0.710938 -11.625,7.7812499 -0.25,3.148438 2.910156,4.804688 3,7.09375 0.07422,1.871094 -1.875,3.4375 -1.875,3.4375 0,0 3.546875,-0.675781 4.65625,-3.53125 1.230469,-3.167969 -2.398437,-5.308594 -2.03125,-7.84375 0.351563,-2.425781 7.875,-6.9374999 7.875,-6.9374999 z M 19.1875,25.160338 c 0,0 -10.125,-0.144531 -10.125,2.71875 0,2.992188 13.253906,3.214844 22.71875,1.375 0,0 2.515625,-1.730469 3.1875,-2.375 -6.203125,1.265625 -20.34375,1.40625 -20.34375,0.3125 0,-1.007812 4.5625,-2.03125 4.5625,-2.03125 z m 19.46875,0 c -0.992187,0.07813 -2.0625,0.460938 -3.03125,1.15625 2.28125,-0.492187 4.21875,0.921875 4.21875,2.53125 0,3.625 -5.25,7.03125 -5.25,7.03125 0,0 8.125,-0.921875 8.125,-6.875 0,-2.703125 -1.878906,-4.015625 -4.0625,-3.84375 z M 16.75,30.722838 c -1.554687,0 -3.875,1.21875 -3.875,2.375 0,2.324219 11.6875,4.113281 20.34375,0.71875 l -3,-1.84375 c -5.867187,1.878906 -16.671875,1.265625 -13.46875,-1.25 z m 1.4375,5.21875 c -2.128906,0 -3.53125,1.285156 -3.53125,2.25 0,2.984375 12.714844,3.285156 17.75,0.25 l -3.1875,-2.03125 c -3.761719,1.589844 -13.203125,1.832031 -11.03125,-0.46875 z m -7.09375,2.6875 C 7.625,38.558776 5.375,40.117369 5.375,41.410338 c 0,6.875 35.5,6.558594 35.5,-0.46875 0,-1.167969 -1.347656,-1.734375 -1.84375,-2 2.902344,6.71875 -29.0625,6.183594 -29.0625,2.21875 0,-0.902344 2.351563,-1.765625 4.53125,-1.34375 l -1.84375,-1.0625 c -0.542969,-0.08203 -1.066406,-0.113281 -1.5625,-0.125 z m 33.53125,4.625 c -5.398437,5.117188 -19.078125,6.972656 -32.84375,3.8125 13.761719,5.632813 32.777344,2.472656 32.84375,-3.8125 z"
     id="path1"
     style="fill:#584b53;fill-opacity:1" />
</svg>
