<?xml version="1.0" encoding="UTF-8" standalone="no"?>
<svg
   viewBox="0 0 50 50"
   width="500px"
   height="500px"
   version="1.1"
   id="svg1"
   sodipodi:docname="javascript.svg"
   inkscape:version="1.4.2 (ebf0e940, 2025-05-08)"
   xmlns:inkscape="http://www.inkscape.org/namespaces/inkscape"
   xmlns:sodipodi="http://sodipodi.sourceforge.net/DTD/sodipodi-0.dtd"
   xmlns="http://www.w3.org/2000/svg"
   xmlns:svg="http://www.w3.org/2000/svg">
  <defs
     id="defs1" />
  <sodipodi:namedview
     id="namedview1"
     pagecolor="#ffffff"
     bordercolor="#000000"
     borderopacity="0.25"
     inkscape:showpageshadow="2"
     inkscape:pageopacity="0.0"
     inkscape:pagecheckerboard="0"
     inkscape:deskcolor="#d1d1d1"
     inkscape:zoom="0.41600001"
     inkscape:cx="120.19231"
     inkscape:cy="486.77884"
     inkscape:window-width="1512"
     inkscape:window-height="916"
     inkscape:window-x="0"
     inkscape:window-y="38"
     inkscape:window-maximized="1"
     inkscape:current-layer="svg1" />
  <path
     d="M 46.828498,0 H 3.1761536 C 1.4229917,0 0,1.4229917 0,3.1761536 V 46.823847 C 0,48.57701 1.4229917,50 3.1761536,50 H 46.823847 C 48.57701,50 50,48.57701 50,46.828498 V 3.1761536 C 50,1.4229917 48.57701,0 46.828498,0 Z M 27.380953,38.313803 c 0,4.757254 -2.790179,6.924293 -6.86384,6.924293 -3.683035,0 -6.338356,-2.469309 -7.421875,-4.761905 l 3.74349,-2.264695 c 0.720796,1.278832 1.818266,2.264695 3.399367,2.264695 1.511347,0 2.380953,-0.590588 2.380953,-2.887835 V 22.619048 h 4.761905 z m 10.32831,6.924293 c -4.217819,0 -6.612722,-2.125186 -7.947358,-4.761905 l 3.571429,-2.380953 c 0.971912,1.590403 2.032179,3.111049 4.273623,3.111049 1.883371,0 2.869234,-0.939359 2.869234,-2.241443 0,-1.5532 -1.023066,-2.106584 -3.092448,-3.013393 l -1.134672,-0.48828 c -3.27846,-1.39509 -5.459451,-3.143602 -5.459451,-6.845239 0,-3.404018 2.599517,-5.998884 6.654577,-5.998884 2.887834,0 4.961868,1.004464 6.459263,3.636533 l -3.534226,2.273995 c -0.78125,-1.399739 -1.618304,-1.948475 -2.925037,-1.948475 -1.329985,0 -2.17169,0.846355 -2.17169,1.948475 0,1.362537 0.841705,1.911273 2.790179,2.757627 l 1.134673,0.488281 c 3.864397,1.650856 6.040737,3.338914 6.040737,7.133557 0,4.087612 -3.213356,6.329055 -7.528833,6.329055 z"
     id="path1"
     style="fill:#584b53;fill-opacity:1;stroke-width:1" />
</svg>
