<?xml version="1.0" encoding="UTF-8" standalone="no"?>
<!-- Uploaded to: SVG Repo, www.svgrepo.com, Generator: SVG Repo Mixer Tools -->

<svg
   fill="#000000"
   width="500"
   height="500"
   viewBox="0 0 20 20"
   version="1.1"
   id="svg1"
   sodipodi:docname="linux.svg"
   inkscape:version="1.4.2 (ebf0e940, 2025-05-08)"
   xmlns:inkscape="http://www.inkscape.org/namespaces/inkscape"
   xmlns:sodipodi="http://sodipodi.sourceforge.net/DTD/sodipodi-0.dtd"
   xmlns="http://www.w3.org/2000/svg"
   xmlns:svg="http://www.w3.org/2000/svg"
   xmlns:rdf="http://www.w3.org/1999/02/22-rdf-syntax-ns#"
   xmlns:cc="http://creativecommons.org/ns#"
   xmlns:dc="http://purl.org/dc/elements/1.1/">
  <defs
     id="defs1" />
  <sodipodi:namedview
     id="namedview1"
     pagecolor="#ffffff"
     bordercolor="#000000"
     borderopacity="0.25"
     inkscape:showpageshadow="2"
     inkscape:pageopacity="0.0"
     inkscape:pagecheckerboard="0"
     inkscape:deskcolor="#d1d1d1"
     inkscape:zoom="0.26"
     inkscape:cx="280.76923"
     inkscape:cy="790.38461"
     inkscape:window-width="1512"
     inkscape:window-height="916"
     inkscape:window-x="0"
     inkscape:window-y="38"
     inkscape:window-maximized="1"
     inkscape:current-layer="svg1" />
  <title
     id="title1">linux</title>
  <path
     d="m 9.2812179,4.7181272 c -0.016669,0.048008 -0.094016,0.040674 -0.1380231,0.054676 -0.039338,0.02067 -0.071345,0.056676 -0.1166863,0.056676 -0.041338,0 -0.1080181,-0.016669 -0.1133525,-0.056676 -0.008,-0.054676 0.073346,-0.1106854 0.1246875,-0.1106854 0.033338,-0.016002 0.072012,-0.024671 0.1126857,-0.024671 0.037344,0 0.072679,0.00733 0.1046844,0.021337 l -0.002,-6.688e-4 c 0.014669,0.006 0.025338,0.020003 0.025338,0.036673 0,0.002 0,0.00333 -6.875e-4,0.00534 v 0 0.016669 h 0.00263 z m 0.4587438,0 v -0.018003 c -0.00531,-0.016669 0.010669,-0.034673 0.024006,-0.041341 0.030675,-0.013336 0.066677,-0.021337 0.1046838,-0.021337 0.040675,0 0.079347,0.00934 0.1133525,0.025338 l -0.00137,-6.688e-4 c 0.052675,0 0.133356,0.056009 0.124687,0.1126857 -0.0047,0.040674 -0.07068,0.054676 -0.1126852,0.054676 -0.046006,0 -0.076679,-0.036006 -0.1173531,-0.056676 -0.043344,-0.015336 -0.1213538,-0.00667 -0.1360225,-0.054009 z M 10.641447,6.037016 C 10.28672,6.2617206 9.8673161,6.4197469 9.4179073,6.4810906 l -0.016,0.002 C 8.9978373,6.4597281 8.6304416,6.3177031 8.330391,6.0909985 l 0.00469,0.00331 C 8.2070372,5.9830066 8.101686,5.8709878 8.0243403,5.8149784 c -0.13669,-0.111352 -0.1200206,-0.27738 -0.061344,-0.27738 0.090682,0.013336 0.1073512,0.1113521 0.1660281,0.1666948 0.080014,0.054676 0.1793632,0.1666946 0.3000507,0.2773802 0.2647112,0.2187032 0.5994344,0.3607272 0.9668288,0.3887316 l 0.006,6.875e-4 C 9.837978,6.3330865 10.234711,6.1930628 10.577436,5.9763597 l -0.01067,0.00667 c 0.162694,-0.1126869 0.370729,-0.2780483 0.540092,-0.3894004 0.130021,-0.1133525 0.12402,-0.2227042 0.232705,-0.2227042 0.106685,0.013336 0.02867,0.1113521 -0.122687,0.2767133 -0.164028,0.1253544 -0.351393,0.2540425 -0.545426,0.3733963 l -0.02934,0.016669 z m -5.9650039,7.560605 h 0.008 c 0.046008,0 0.091349,0.0047 0.1353562,0.01267 l -0.00467,-6.87e-4 c 0.3627277,0.09335 0.6614446,0.31872 0.8488095,0.620771 l 0.00333,0.006 0.7581277,1.386233 0.00269,0.0026 c 0.3047181,0.51542 0.6321063,0.961495 0.9981676,1.372898 l -0.00733,-0.0087 c 0.3267219,0.346724 0.5467594,0.797467 0.6061026,1.297551 l 0.00138,0.01067 v 0.0053 c -0.008,0.544759 -0.4087363,0.994168 -0.9308239,1.077515 l -0.006,6.87e-4 c -0.1333562,0.02068 -0.2880487,0.03201 -0.4447419,0.03201 -0.5714293,0 -1.106186,-0.155358 -1.5649298,-0.426738 l 0.014002,0.008 C 4.3917285,18.70048 3.5769247,18.518449 2.7234478,18.493112 H 2.7134461 C 2.4654044,18.476442 2.2493681,18.349754 2.1126784,18.162389 l -0.00133,-0.002 c -0.036006,-0.116019 -0.056676,-0.249375 -0.056676,-0.388065 0,-0.233372 0.058676,-0.452743 0.1626941,-0.644108 l -0.00333,0.0073 v -0.0033 l 0.002,-0.0026 c 0.027338,-0.125354 0.043341,-0.270046 0.043341,-0.41807 0,-0.182698 -0.024004,-0.359394 -0.069345,-0.527423 l 0.00333,0.01401 c -0.027338,-0.100017 -0.043341,-0.21537 -0.043341,-0.334723 0,-0.16136 0.028671,-0.315387 0.082014,-0.458077 l -0.00267,0.0093 c 0.1333558,-0.278069 0.3300556,-0.333412 0.5747633,-0.444097 0.2920492,-0.08868 0.546092,-0.222704 0.7674626,-0.3954 l -0.00534,0.004 h 0.00133 v -0.002 C 3.7809569,14.353713 3.9383168,14.076333 4.1243481,13.878966 4.25437,13.712939 4.4524033,13.605587 4.6757742,13.598919 h 0.00133 z m 9.0108499,-0.04068 c -6.87e-4,0.01134 -6.87e-4,0.02534 -6.87e-4,0.03934 0,0.495417 0.299383,0.920821 0.727455,1.10552 l 0.008,0.0033 c 0.03201,0.002 0.06935,0.0033 0.106685,0.0033 0.554093,0 1.050176,-0.247375 1.383566,-0.638108 l 0.002,-0.0026 0.17603,-0.008 c 0.03534,-0.0053 0.07601,-0.008 0.117353,-0.008 0.227372,0 0.43474,0.08802 0.588765,0.23204 l -6.87e-4,-6.88e-4 0.0026,0.0026 c 0.166028,0.200702 0.28138,0.448743 0.324721,0.721455 l 0.0014,0.0087 c 0.03668,0.336723 0.158693,0.640108 0.344725,0.893484 l -0.0033,-0.0053 c 0.27738,0.237374 0.470079,0.566763 0.528755,0.940825 l 0.0014,0.0087 0.0026,-0.006 v 0.01467 l -0.0026,-0.01 c -0.01267,0.218037 -0.154026,0.330056 -0.414736,0.496084 -0.789466,0.331389 -1.46758,0.77213 -2.051679,1.312221 l 0.0047,-0.004 c -0.405402,0.528088 -1.000836,0.892817 -1.682283,0.990833 l -0.01401,0.0014 c -0.04934,0.0067 -0.106685,0.01067 -0.164694,0.01067 -0.512086,0 -0.952161,-0.309385 -1.144193,-0.750793 l -0.0033,-0.008 -0.004,-0.0026 c -0.06201,-0.190698 -0.09735,-0.410068 -0.09735,-0.63744 0,-0.27738 0.05268,-0.542091 0.149359,-0.785466 l -0.0053,0.01467 c 0.156026,-0.445408 0.290049,-0.977498 0.37873,-1.52559 l 0.0073,-0.05534 c 0.01067,-0.541424 0.06934,-1.062179 0.172029,-1.56693 l -0.0093,0.05534 c 0.05668,-0.345392 0.254043,-0.636108 0.529423,-0.816805 l 0.0047,-0.0026 0.03734,-0.018 z M 11.86632,6.0930266 c 0.400067,1.4315741 0.892817,2.6684492 1.498252,3.8386456 l -0.05267,-0.1113519 c 0.408736,0.7267887 0.726789,1.5702647 0.90882,2.4637477 l 0.0093,0.05601 c 0.006,0 0.01334,0 0.02068,0 0.144692,0 0.284715,0.01933 0.418071,0.05601 l -0.01133,-0.0026 c 0.07335,-0.263379 0.115352,-0.565429 0.115352,-0.877482 0,-0.950826 -0.391399,-1.8109712 -1.022172,-2.4264081 l -6.87e-4,-6.875e-4 C 13.566572,8.9222154 13.55657,8.8095297 13.647253,8.8095297 c 0.647441,0.6067688 1.126188,1.3855663 1.363562,2.2630473 l 0.008,0.03401 c 0.05934,0.21937 0.09335,0.471412 0.09335,0.731456 0,0.234039 -0.02734,0.462078 -0.07935,0.680114 l 0.004,-0.02001 c 0.04934,0.02534 0.106686,0.04467 0.167363,0.05534 l 0.004,6.87e-4 c 0.860143,0.444742 1.17753,0.781466 1.024839,1.280882 v -0.03601 c -0.05001,-0.0026 -0.100018,0 -0.150027,0 h -0.01334 c 0.126021,-0.389399 -0.151359,-0.687449 -0.887483,-1.020172 -0.762128,-0.333389 -1.371565,-0.280047 -1.474914,0.387399 -0.0073,0.03267 -0.01267,0.07068 -0.01467,0.110018 v 0.002 c -0.04867,0.02 -0.106685,0.03867 -0.166695,0.05201 l -0.0073,0.0014 c -0.338724,0.224037 -0.580098,0.572763 -0.659444,0.979498 l -0.0014,0.0093 c -0.09868,0.463411 -0.160694,1.000168 -0.170696,1.548927 v 0.008 0.0026 c -0.06068,0.424738 -0.153359,0.804802 -0.278713,1.168864 l 0.01334,-0.04401 c -0.655443,0.53609 -1.500919,0.860143 -2.4230732,0.860143 -0.7534601,0 -1.4562452,-0.216702 -2.0490115,-0.591432 l 0.016,0.0093 C 7.8683128,17.114213 7.7569609,16.968189 7.6302728,16.838167 l 6.875e-4,6.87e-4 C 7.5662628,16.732149 7.4902496,16.6408 7.4029021,16.56212 l -0.00131,-6.88e-4 c 0.1380232,0 0.2713788,-0.02067 0.3974001,-0.05868 l -0.01,0.0026 C 7.9090084,16.448738 8.0010241,16.35072 8.0496985,16.2307 l 0.00137,-0.0033 c 0.012,-0.06201 0.019331,-0.13269 0.019331,-0.205368 0,-0.296717 -0.1166856,-0.565429 -0.307385,-0.764129 l 6.875e-4,6.88e-4 C 7.3508934,14.751148 6.8574765,14.328411 6.2993827,14.005023 l -0.025338,-0.01334 C 5.8266367,13.732977 5.487913,13.328243 5.3205514,12.843494 l -0.00467,-0.01467 c -0.062012,-0.212037 -0.098018,-0.456078 -0.098018,-0.70812 0,-0.235373 0.031339,-0.463412 0.089349,-0.680782 l -0.00401,0.018 C 5.5545828,10.581777 5.9173105,9.8169816 6.3833889,9.1268653 l -0.018669,0.028675 c 0.089348,-0.054013 0.030675,0.1126862 -0.3400573,0.81147 -0.3160532,0.4754137 -0.5047515,1.0601787 -0.5047515,1.6889517 0,0.560094 0.1493584,1.084848 0.4107357,1.537592 l -0.008,-0.01467 c 0.034672,-0.872813 0.2300378,-1.691617 0.5560928,-2.439743 l -0.016669,0.04334 C 7.1655252,9.514264 7.6982815,8.0413495 7.9789953,6.48042 l 0.013338,-0.087348 c 0.040006,0.030006 0.1806969,0.1126862 0.2407069,0.1680281 0.1813638,0.1106856 0.3167201,0.27738 0.4914163,0.3873988 0.1780294,0.1733625 0.4220707,0.2800469 0.6901157,0.2800469 0.014006,0 0.028006,0 0.042006,-6.875e-4 h -0.002 c 0.032669,0.00263 0.062677,0.00531 0.091349,0.00531 0.3060507,-0.006 0.5914328,-0.088015 0.8394738,-0.2280382 l -0.0087,0.00469 c 0.241375,-0.1113526 0.433408,-0.278047 0.616771,-0.3333895 h 0.004 c 0.356727,-0.096683 0.655444,-0.3027175 0.866813,-0.5794309 l 0.0026,-0.004 z M 9.5332605,4.3080582 c 0.002,0 0.004,0 0.006,0 0.3793969,0 0.7294565,0.1246877 1.0115035,0.3353898 l -0.0047,-0.00333 c 0.252045,0.156025 0.542761,0.288714 0.850145,0.3827299 l 0.02667,0.00667 h 0.0026 c 0.164028,0.073346 0.299384,0.1873648 0.396067,0.3293887 l 0.002,0.00333 V 5.2528839 c 0.03067,0.061344 0.04934,0.1340225 0.04934,0.2107021 0,0.065344 -0.01334,0.1273547 -0.03667,0.184031 l 0.0014,-0.00333 c -0.19207,0.3380558 -0.503456,0.5894315 -0.875518,0.6987824 l -0.01067,0.00263 v 0.00137 c -0.223371,0.1126856 -0.417403,0.27738 -0.645441,0.3873987 -0.233373,0.1400232 -0.5140865,0.2227038 -0.814804,0.2227038 -0.01,0 -0.020006,0 -0.030006,0 h 0.00138 c -0.014669,6.875e-4 -0.032006,0.00138 -0.049338,0.00138 -0.1160194,0 -0.2280381,-0.020675 -0.3307225,-0.059344 l 0.00667,0.002 C 8.983216,6.8431907 8.8958673,6.7885113 8.8111873,6.729835 l 0.00933,0.00667 C 8.6691598,6.6038144 8.5024654,6.47646 8.3277685,6.3597737 L 8.310431,6.349105 v -0.004 h -0.004 C 8.0563447,6.2123785 7.8596453,6.009011 7.7382915,5.7609694 l -0.00331,-0.008 C 7.7169728,5.7082937 7.7069728,5.656285 7.7069728,5.602276 c 0,-0.1453579 0.074679,-0.2733794 0.187365,-0.3480586 l 0.00131,-6.688e-4 c 0.1867,-0.1126835 0.3167225,-0.226036 0.4027369,-0.2800451 0.086681,-0.061344 0.1193532,-0.084681 0.1466913,-0.1093517 h 0.00138 V 4.861483 C 8.6251316,4.635445 8.8618379,4.4620825 9.1345511,4.364066 l 0.010669,-0.00333 C 9.2612401,4.327397 9.3945951,4.30806 9.5326189,4.306727 h 6.875e-4 z M 8.3917347,2.8864857 h 0.030006 c 0.125355,0.00266 0.2407075,0.044674 0.3340569,0.1133524 l -0.00137,-0.00133 C 8.873776,3.1045247 8.971126,3.233213 9.0378042,3.3785708 l 0.00263,0.00733 c 0.075346,0.1633609 0.12202,0.3533928 0.1273544,0.5534265 v 0.002 0.00333 c 0.00263,0.030672 0.004,0.066011 0.004,0.1013504 0,0.042007 -0.002,0.084014 -0.006,0.1253544 l 6.875e-4,-0.00534 v 0.066678 c -0.024669,0.006 -0.046675,0.014669 -0.069345,0.020003 C 8.9697717,4.3053867 8.8624198,4.361396 8.7604029,4.42474 l 0.00933,-0.00534 c 0.00531,-0.036673 0.008,-0.07868 0.008,-0.1213537 0,-0.035339 -0.002,-0.070679 -0.006,-0.105351 l 6.875e-4,0.004 v -0.01266 C 8.7604635,4.0813534 8.7364598,3.9873376 8.7011204,3.898656 l 0.00263,0.00733 C 8.6764498,3.8179757 8.628441,3.7432965 8.5657641,3.6839532 v 0 c -0.036675,-0.033339 -0.085348,-0.054009 -0.1393569,-0.054009 -0.00469,0 -0.00933,0 -0.014006,6.687e-4 h 6.875e-4 -0.017338 c -0.068678,0.00733 -0.1260207,0.050009 -0.1546925,0.108685 l -6.875e-4,0.00133 C 8.1890267,3.8026389 8.1536887,3.879318 8.1403532,3.9633321 v 0.00266 c -0.015338,0.057343 -0.023338,0.1233541 -0.023338,0.1913655 0,0.029338 0.00138,0.058677 0.00469,0.087348 v -0.00333 0.012669 c 0.010669,0.102684 0.034669,0.1973665 0.069345,0.2853813 l -0.00263,-0.00733 c 0.028006,0.088015 0.075346,0.1633608 0.1380225,0.2233709 v 0 c 0.008,0.008 0.017338,0.014669 0.028006,0.020003 h 6.875e-4 c -0.05534,0.035337 -0.1033471,0.072677 -0.1473546,0.1140169 l 6.875e-4,-6.688e-4 c -0.030006,0.026671 -0.066678,0.046674 -0.1073519,0.056009 l -0.002,6.687e-4 C 8.0170053,4.8474823 7.9409922,4.7374638 7.8756484,4.6214443 l -0.00531,-0.010669 C 7.7949678,4.4474151 7.7482934,4.2580498 7.740959,4.0573494 v -0.00266 c -0.00269,-0.032006 -0.004,-0.069345 -0.004,-0.1073514 0,-0.1606937 0.026006,-0.3153864 0.073346,-0.4600774 l -0.00269,0.010669 C 7.8569609,3.3258929 7.9376397,3.1772012 8.0449916,3.0505133 l -0.00137,0.002 C 8.1283397,2.952498 8.252361,2.889154 8.3917179,2.8858201 h 6.875e-4 z m 2.4684163,-0.049342 h 0.01066 c 6.87e-4,0 0.0014,0 0.0026,0 0.183365,0 0.351393,0.062011 0.486082,0.1660279 l -0.002,-0.00133 c 0.152692,0.1180198 0.27538,0.2667116 0.361394,0.4367401 l 0.0033,0.00733 c 0.08068,0.1773632 0.13069,0.3833979 0.138024,0.6007678 v 0.00266 c 0,-0.016669 0.0047,-0.033339 0.0047,-0.050009 v 0.087348 l -0.0033,-0.017336 -0.0033,-0.020004 c -0.002,0.2133692 -0.04734,0.4147365 -0.128689,0.5981007 l 0.004,-0.00934 c -0.04134,0.108685 -0.10135,0.202034 -0.177363,0.2793803 v 0 c -0.02,-0.012002 -0.04467,-0.023338 -0.06935,-0.033339 l -0.004,-0.00133 c -0.09005,-0.027994 -0.168729,-0.066 -0.240075,-0.1126746 l 0.0033,0.002 C 11.194794,4.750799 11.13345,4.732129 11.070107,4.718127 l -0.0073,-0.00133 c 0.05401,-0.050677 0.10402,-0.1046856 0.150027,-0.1620286 l 0.0026,-0.00333 c 0.04201,-0.098683 0.06801,-0.2127024 0.07335,-0.3327227 v -0.002 -0.016669 c 0,-0.00534 0,-0.010669 0,-0.016669 0,-0.1133525 -0.01867,-0.2220374 -0.05334,-0.3233878 l 0.002,0.00733 c -0.04194,-0.10602 -0.09329,-0.1973686 -0.154629,-0.280716 l 0.0026,0.00333 c -0.05796,-0.058673 -0.134642,-0.098679 -0.220656,-0.1100147 h -0.002 -0.01334 c -6.87e-4,0 -0.002,0 -0.0026,0 -0.08802,0 -0.166695,0.043341 -0.214703,0.1093518 l -6.88e-4,6.687e-4 c -0.07734,0.075346 -0.136017,0.1686951 -0.169356,0.2733794 l -0.0014,0.00467 c -0.04201,0.098016 -0.06935,0.2120357 -0.07468,0.3307224 v 0.002 0.016002 c 0.0014,0.080013 0.0073,0.1573597 0.018,0.2327058 l -0.0014,-0.010002 C 10.242046,4.3834044 10.038012,4.326728 9.8966549,4.2713853 9.8886549,4.2227103 9.8833174,4.1653676 9.8819861,4.106691 v -0.002 -0.016669 C 9.8812986,4.074686 9.8812986,4.05935 9.8812986,4.044014 c 0,-0.2160363 0.046006,-0.4207374 0.1293554,-0.6054351 l -0.004,0.00934 C 10.077334,3.2618825 10.20202,3.1091902 10.36138,3.0058394 l 0.0033,-0.002 C 10.500716,2.899822 10.672744,2.8371448 10.859443,2.8371448 v 0 z M 10.419409,0 C 10.290054,0 10.156699,0.00666781 10.019342,0.01733625 6.4980827,0.29471628 7.4322403,4.0226769 7.3782309,5.2648859 7.3448934,6.2157128 7.0221715,7.0845251 6.4947489,7.7933114 l 0.00867,-0.012 C 5.56526,8.8494908 4.7997978,10.097701 4.2690418,11.46393 l -0.028671,0.08468 c -0.172029,0.456743 -0.2720458,0.984165 -0.2720458,1.534925 0,0.190032 0.012002,0.377397 0.034673,0.560761 l -0.002,-0.02201 c -0.037339,0.03067 -0.068678,0.06801 -0.090682,0.110685 l -6.688e-4,0.002 c -0.2167031,0.223372 -0.3747296,0.500085 -0.5527596,0.698785 -0.1886985,0.144691 -0.410069,0.25871 -0.6501094,0.329389 l -0.014003,0.0033 c -0.3093861,0.09268 -0.5614284,0.294716 -0.7167879,0.560761 l -0.00333,0.006 c -0.069345,0.141357 -0.1100185,0.307385 -0.1100185,0.483414 0,0.0067 0,0.01267 0,0.01934 v -6.88e-4 c 0.00133,0.158694 0.017336,0.31272 0.048675,0.462078 l -0.00267,-0.01534 c 0.037339,0.146024 0.058676,0.314052 0.058676,0.486748 0,0.113352 -0.00934,0.224705 -0.027338,0.333389 l 0.00133,-0.012 c -0.1113493,0.208764 -0.1760269,0.456806 -0.1760269,0.720183 0,0.185365 0.032006,0.362728 0.091349,0.527422 l -0.00333,-0.01067 c 0.1820306,0.25871 0.4574103,0.441408 0.7761306,0.499417 l 0.00733,0.0014 c 0.8494763,0.07134 1.634275,0.248708 2.3743995,0.520087 l -0.06268,-0.02003 c 0.4654116,0.276713 1.0261727,0.440074 1.6242732,0.440074 0.1960331,0 0.3880656,-0.01734 0.5747638,-0.05134 l -0.019337,0.0026 c 0.4447413,-0.100671 0.8074688,-0.39072 1.0028351,-0.779452 l 0.004,-0.0087 c 0.4894156,-0.0026 1.0248388,-0.224038 1.8829829,-0.278047 0.582098,-0.04801 1.311555,0.222704 2.147029,0.166695 0.02467,0.106018 0.05734,0.1987 0.09868,0.286048 l -0.004,-0.0087 0.0026,0.0026 C 12.518402,19.635938 13.055826,20 13.678598,20 c 0.05401,0 0.107351,-0.0026 0.160027,-0.008 l -0.0067,6.88e-4 c 0.767463,-0.113353 1.42624,-0.512087 1.87565,-1.082182 l 0.0047,-0.006 c 0.562093,-0.512087 1.218204,-0.934157 1.936992,-1.235542 l 0.04467,-0.01667 c 0.288048,-0.127354 0.49475,-0.390065 0.54009,-0.706118 l 6.88e-4,-0.0047 c -0.03932,-0.462709 -0.261357,-0.866111 -0.592079,-1.144157 l -0.0026,-0.002 v -0.08068 l -0.0026,-0.0026 c -0.142756,-0.220086 -0.242773,-0.481463 -0.28078,-0.76151 l -0.0014,-0.01 c -0.03534,-0.342069 -0.185365,-0.644121 -0.41007,-0.871492 v 0 h -0.0026 c -0.04934,-0.04467 -0.102684,-0.05601 -0.156694,-0.112685 -0.04401,-0.03134 -0.09868,-0.05068 -0.158026,-0.05334 h -6.87e-4 c 0.130022,-0.401401 0.205367,-0.862812 0.205367,-1.342226 0,-0.626772 -0.128688,-1.223539 -0.360727,-1.764963 l 0.01133,0.02934 C 16.01366,9.7103028 15.403558,8.7508083 14.661433,7.9120001 l 0.0093,0.011331 C 13.934001,7.2018788 13.45192,6.2223803 13.371907,5.1315301 l -6.88e-4,-0.014003 c 0.02201,-1.7929683 0.1967,-5.11019316 -2.953164,-5.11486061 z"
     id="path1"
     style="fill:#584b53;fill-opacity:1;stroke-width:1" />
  <metadata
     id="metadata1">
    <rdf:RDF>
      <cc:Work
         rdf:about="">
        <dc:title>linux</dc:title>
      </cc:Work>
    </rdf:RDF>
  </metadata>
</svg>
