<?xml version="1.0" encoding="UTF-8" standalone="no"?>
<svg
   viewBox="0 0 31.25 31.25"
   width="500"
   height="500"
   version="1.1"
   id="svg1"
   sodipodi:docname="react.svg"
   inkscape:version="1.4.2 (ebf0e940, 2025-05-08)"
   xmlns:inkscape="http://www.inkscape.org/namespaces/inkscape"
   xmlns:sodipodi="http://sodipodi.sourceforge.net/DTD/sodipodi-0.dtd"
   xmlns="http://www.w3.org/2000/svg"
   xmlns:svg="http://www.w3.org/2000/svg">
  <defs
     id="defs1" />
  <sodipodi:namedview
     id="namedview1"
     pagecolor="#ffffff"
     bordercolor="#000000"
     borderopacity="0.25"
     inkscape:showpageshadow="2"
     inkscape:pageopacity="0.0"
     inkscape:pagecheckerboard="0"
     inkscape:deskcolor="#d1d1d1"
     inkscape:zoom="0.86666667"
     inkscape:cx="78.461538"
     inkscape:cy="259.03846"
     inkscape:window-width="1512"
     inkscape:window-height="916"
     inkscape:window-x="0"
     inkscape:window-y="38"
     inkscape:window-maximized="1"
     inkscape:current-layer="svg1" />
  <path
     d="m 9.9995935,1.5385955 c -0.7955742,0 -1.5334479,0.1781007 -2.1870937,0.5544027 C 5.7697,3.2724126 4.9921419,6.1465454 5.4041543,9.7249357 2.0998705,11.157335 0,13.266495 0,15.625001 c 0,2.358505 2.0998705,4.467665 5.4041543,5.900064 -0.4117996,3.578249 0.3655457,6.452523 2.4083455,7.631937 0.6523437,0.376302 1.3902174,0.554402 2.1870937,0.554402 1.6961275,0 3.6564605,-0.851263 5.6254065,-2.311705 1.969117,1.460442 3.931822,2.311705 5.62795,2.311705 0.795573,0 1.533447,-0.1781 2.187092,-0.554402 2.042788,-1.179407 2.820343,-4.053576 2.408345,-7.631937 3.303041,-1.432386 5.401612,-3.542071 5.401612,-5.900065 0,-2.358506 -2.099871,-4.467665 -5.404155,-5.9000643 C 26.257645,6.1466855 25.480299,3.2724126 23.437499,2.0929982 22.785156,1.7153941 22.047281,1.5385955 21.250406,1.5385955 19.554278,1.5385955 17.593945,2.3898589 15.625,3.850302 13.655941,2.3898589 11.695134,1.5385955 9.9995935,1.5385955 Z m 0,2.2786458 c 1.0177515,0 2.3636355,0.5411562 3.8248695,1.5436808 C 12.965325,6.1717088 12.123897,7.0936624 11.314392,8.1202197 10.001405,8.308486 8.7634727,8.5829315 7.6166787,8.9263924 7.6105199,8.8468625 7.5959339,8.7634133 7.5912477,8.6847949 7.4519248,6.3670867 7.9609377,4.6393849 8.9518231,4.0664682 9.2447914,3.8971974 9.5868331,3.8172413 9.9995935,3.8172413 Z m 11.2508125,0 c 0.411458,0 0.754802,0.079956 1.047771,0.2492269 0.990885,0.5716146 1.499898,2.3006185 1.360575,4.6183267 -0.0047,0.078618 -0.01925,0.1620681 -0.02543,0.2415975 C 22.485807,8.5827159 21.246964,8.3084988 19.933065,8.1202197 19.12357,7.0938051 18.284656,6.1716145 17.425536,5.3609221 18.886669,4.358565 20.23318,3.8172413 21.250406,3.8172413 Z M 15.625,6.8079639 c 0.352968,0.3212695 0.703471,0.6608318 1.057942,1.0325114 -0.351278,-0.011797 -0.700686,-0.027974 -1.057942,-0.027974 -0.356399,0 -0.704951,0.016231 -1.0554,0.027974 0.354157,-0.3712938 0.702762,-0.7115465 1.0554,-1.0325114 z m 0,3.2831831 c 1.07902,0 2.101729,0.06031 3.072102,0.165303 0.591779,0.804354 1.174999,1.654763 1.721701,2.601624 0.524001,0.907595 0.987366,1.836572 1.396178,2.766927 -0.408867,0.930914 -0.871862,1.86133 -1.396178,2.76947 -0.545004,0.944128 -1.126774,1.789057 -1.716615,2.591451 -1.004648,0.109922 -2.035237,0.172933 -3.077188,0.172933 -1.079021,0 -2.10173,-0.06031 -3.072103,-0.165304 -0.591779,-0.804354 -1.174999,-1.65222 -1.721701,-2.59908 -0.524316,-0.908141 -0.9871936,-1.838557 -1.396178,-2.76947 0.4086953,-0.930355 0.872177,-1.859332 1.396178,-2.766927 0.545214,-0.944129 1.126632,-1.791601 1.716615,-2.593995 1.004648,-0.109921 2.035237,-0.172932 3.077189,-0.172932 z m 6.179809,0.704448 c 0.516598,0.124726 1.013228,0.259365 1.480102,0.409444 -0.105768,0.477931 -0.235126,0.965025 -0.381469,1.457213 -0.167552,-0.314411 -0.330038,-0.629825 -0.511169,-0.943501 -0.186363,-0.322662 -0.393258,-0.612555 -0.587464,-0.923156 z m -12.3621621,0.0026 C 9.2490948,11.107782 9.0434923,11.397124 8.8577269,11.718751 8.676649,12.03248 8.5140585,12.347795 8.3465573,12.662252 8.1998826,12.169049 8.0684241,11.681375 7.9625446,11.202496 8.4379813,11.052279 8.9333722,10.919253 9.4426469,10.798138 Z m -3.6239622,1.240991 c 0.2743443,1.158359 0.6549215,2.359146 1.1444091,3.583272 -0.4884503,1.221218 -0.8674261,2.419798 -1.141866,3.575643 -2.2675395,-1.094972 -3.542582,-2.458032 -3.542582,-3.5731 0,-1.144531 1.2394205,-2.448872 3.3162434,-3.486633 0.070888,-0.03547 0.1513639,-0.06454 0.2237955,-0.09918 z m 19.6100863,0.01276 c 2.267539,1.094925 3.542582,2.457985 3.542582,3.573054 0,1.144531 -1.23942,2.448872 -3.316243,3.486632 -0.07089,0.03546 -0.151365,0.06454 -0.223796,0.09918 -0.274505,-1.159036 -0.651964,-2.360944 -1.141865,-3.585812 0.487864,-1.220165 0.865112,-2.418224 1.139322,-3.5731 z M 15.625,13.020835 c -1.438802,0 -2.604167,1.165364 -2.604167,2.604166 0,1.438802 1.165365,2.604165 2.604167,2.604165 1.438802,0 2.604166,-1.165363 2.604166,-2.604165 0,-1.438802 -1.165364,-2.604166 -2.604166,-2.604166 z m -7.2784427,5.566914 c 0.1676084,0.314527 0.3325131,0.629709 0.5137127,0.943501 0.1861601,0.322428 0.3909212,0.612771 0.5849199,0.923157 C 8.9285922,20.32968 8.4319615,20.195041 7.9650877,20.044963 8.0709392,19.566732 8.2000878,19.080252 8.3465573,18.587749 Z m 14.5568847,0.0026 c 0.146511,0.492728 0.27822,0.978784 0.384013,1.457214 -0.475437,0.150216 -0.970828,0.283242 -1.480103,0.404357 0.193552,-0.309644 0.399155,-0.598987 0.584921,-0.920612 0.1807,-0.313077 0.343988,-0.627158 0.511169,-0.940959 z M 7.6166787,22.323608 c 1.1475143,0.343677 2.3863563,0.617893 3.7002563,0.806173 0.809742,1.026918 1.648019,1.950863 2.507528,2.761841 -1.461127,1.002233 -2.807182,1.54368 -3.8248695,1.54368 -0.4114596,0 -0.7548021,-0.0825 -1.0477708,-0.25177 -0.9908854,-0.571615 -1.4998983,-2.298076 -1.3605754,-4.615784 0.00477,-0.07944 0.019162,-0.163772 0.025431,-0.24414 z m 16.0166423,0 c 0.0063,0.08037 0.02069,0.164704 0.02543,0.24414 0.139323,2.317708 -0.36969,4.042868 -1.360576,4.615784 -0.292969,0.169271 -0.63501,0.251772 -1.047771,0.25177 -1.017687,0 -2.363742,-0.541281 -3.824869,-1.54368 0.859573,-0.811072 1.700169,-1.734781 2.510071,-2.761841 1.312987,-0.188267 2.550919,-0.462713 3.697715,-0.806173 z m -9.066264,1.085917 c 0.351279,0.01185 0.700686,0.02797 1.057943,0.02797 0.357256,0 0.706664,-0.01617 1.057942,-0.02797 -0.354471,0.371678 -0.704974,0.711262 -1.057942,1.032511 -0.352969,-0.321269 -0.703472,-0.660831 -1.057943,-1.032511 z"
     id="path1"
     style="fill:#584b53;fill-opacity:1;stroke-width:1" />
</svg>
