<?xml version="1.0" encoding="UTF-8" standalone="no"?>
<svg
   viewBox="0 0 50 50"
   width="500px"
   height="500px"
   version="1.1"
   id="svg1"
   sodipodi:docname="sqlite.svg"
   inkscape:version="1.4.2 (ebf0e940, 2025-05-08)"
   xmlns:inkscape="http://www.inkscape.org/namespaces/inkscape"
   xmlns:sodipodi="http://sodipodi.sourceforge.net/DTD/sodipodi-0.dtd"
   xmlns="http://www.w3.org/2000/svg"
   xmlns:svg="http://www.w3.org/2000/svg">
  <defs
     id="defs1" />
  <sodipodi:namedview
     id="namedview1"
     pagecolor="#ffffff"
     bordercolor="#000000"
     borderopacity="0.25"
     inkscape:showpageshadow="2"
     inkscape:pageopacity="0.0"
     inkscape:pagecheckerboard="0"
     inkscape:deskcolor="#d1d1d1"
     inkscape:zoom="0.58831284"
     inkscape:cx="47.593726"
     inkscape:cy="347.60418"
     inkscape:window-width="1512"
     inkscape:window-height="916"
     inkscape:window-x="0"
     inkscape:window-y="38"
     inkscape:window-maximized="1"
     inkscape:current-layer="svg1" />
  <path
     d="M 42.726348,0.00152216 C 41.20143,-0.04076032 39.570069,0.80015776 37.951631,2.2362363 37.567114,2.5780295 37.183101,2.957418 36.801709,3.3617344 32.372986,8.0603491 28.261177,16.762823 26.983621,23.409034 c 0.497059,1.008707 0.88747,2.297139 1.143815,3.280837 0.06565,0.252177 0.12407,0.487795 0.170962,0.689953 0.112542,0.47726 0.172998,0.78561 0.172998,0.78561 0,0 -0.03893,-0.149697 -0.201491,-0.622789 -0.03126,-0.09066 -0.06723,-0.188579 -0.10787,-0.305289 -0.01771,-0.04793 -0.04007,-0.106404 -0.06716,-0.168927 -0.288648,-0.672123 -1.088749,-2.089999 -1.440963,-2.706894 -0.301153,0.887828 -0.565688,1.717449 -0.787644,2.468769 1.014959,1.85798 1.632277,5.041335 1.632277,5.041336 0,0 -0.05202,-0.205984 -0.307324,-0.926042 -0.226126,-0.636694 -1.354294,-2.61464 -1.622102,-3.077312 -0.457461,1.688125 -0.639852,2.828618 -0.47625,3.105804 0.317826,0.5377 0.62165,1.463742 0.887372,2.489122 0.09274,0.35534 0.179185,0.722061 0.262549,1.088864 -0.276143,2.424856 -0.340979,4.86067 -0.207596,7.27198 0.138593,2.613467 0.504206,5.193361 0.917901,7.738053 0.04377,0.267808 0.289707,0.461597 0.563767,0.435546 0.286565,-0.02709 0.497238,-0.281273 0.470145,-0.567837 -0.130256,-1.386972 -0.240535,-2.770216 -0.311394,-4.149893 l 0.0631,0.618719 c -0.09899,-1.239001 -0.126414,-2.57286 -0.07327,-3.993178 0.188612,-5.037282 1.349051,-11.112693 3.490469,-17.444204 C 34.774959,14.903557 39.794754,7.2331386 44.389164,3.5713661 40.201155,7.3540167 34.533497,19.59758 32.837035,24.131551 c -1.899662,5.076879 -3.246548,9.84033 -4.058307,14.405562 1.400519,-4.27971 5.926674,-6.117989 5.926674,-6.117989 0,0 2.221754,-2.73936 4.815423,-6.651225 -1.553701,0.354298 -4.107479,0.961375 -4.961962,1.320883 -1.260883,0.529363 -1.599713,0.710305 -1.599713,0.710305 0,0 4.084064,-2.488161 7.587445,-3.61462 C 45.366088,16.594157 50.616828,5.8107858 45.329453,1.0944561 44.517034,0.3699691 43.641298,0.02689165 42.726348,0.00152216 Z M 6.6289976,2.0835919 c -2.2888925,0 -4.16821,1.8793175 -4.16821,4.16821 V 40.639535 c 0,2.288892 1.8793175,4.16821 4.16821,4.16821 H 22.259786 a 1.0421567,1.0421567 0 1 0 0,-2.084105 H 6.6289976 c -1.1582172,0 -2.084105,-0.925888 -2.084105,-2.084105 V 6.2518019 c 0,-1.1582172 0.9258878,-2.084105 2.084105,-2.084105 H 31.638258 a 1.0421567,1.0421567 0 1 0 0,-2.084105 z"
     id="path1"
     style="fill:#584b53;fill-opacity:1;stroke-width:1" />
</svg>
